<svg width="568" height="179" viewBox="0 0 568 179" fill="none" xmlns="http://www.w3.org/2000/svg">
<path fill-rule="evenodd" clip-rule="evenodd" d="M568 15H425V166H568V15ZM505 42H527V67H505V42ZM505 113H527V138H505V113Z" fill="#D9D9D9"/>
<path d="M25 26C25 42.125 6.1371 63.9636 6.00087 89.8798C5.86219 116.263 25 141.356 25 155" stroke="#3A3A3A" stroke-width="10"/>
<path fill-rule="evenodd" clip-rule="evenodd" d="M50 0C33.4315 0 20 12.0816 20 26.9849V152.015C20 166.919 33.4315 179 50 179H448C452.418 179 456 175.778 456 171.804V7.19598C456 3.22175 452.418 0 448 0H50ZM260.449 77.4359L284 91.0042L260.449 104.571V94.8762H169.513L192.956 119.585C194.95 121.18 197.563 122.298 200.248 122.359C214.287 122.359 219.225 122.368 219.225 122.368V114.501H242.782V138H219.225V130.122L200.477 130.126C195.204 130.126 189.677 127.242 186.161 123.86C186.259 123.958 186.358 124.068 186.159 123.858C186.082 123.773 161.295 97.6508 161.295 97.6508C159.307 96.0562 156.702 94.9429 154.024 94.8748H124.433C124.398 94.8767 124.364 94.8748 124.329 94.8748H110.951C109.146 103.857 101.202 110.624 91.6709 110.624C80.8066 110.624 72 101.838 72 90.9991C72 80.1635 80.8066 71.3776 91.6709 71.3776C101.2 71.3776 109.144 78.1393 110.949 87.1139H124.566C127.249 87.0501 129.857 85.9382 131.848 84.3454C131.848 84.3454 156.64 58.2211 156.715 58.1375C156.916 57.928 156.816 58.0351 156.72 58.1356C160.237 54.7524 165.761 51.8665 171.034 51.8665L190.487 51.8698C192.096 47.2996 196.419 44 201.558 44C208.059 44 213.334 49.2609 213.334 55.7516C213.334 62.2395 208.058 67.5023 201.558 67.5023C196.419 67.5023 192.096 64.2009 190.487 59.6269C188.113 59.6316 181.664 59.6344 170.803 59.6344C168.118 59.6964 165.509 60.8154 163.514 62.4105L140.076 87.1149H260.449V77.4359Z" fill="#3A3A3A"/>
</svg>